<svg width="800" height="280" viewBox="0 0 800 280" fill="none" xmlns="http://www.w3.org/2000/svg">
<path d="M386.909 185.148C382.378 185.148 378.307 184.039 374.698 181.82C371.088 179.516 368.208 176.017 366.058 171.324C363.984 166.545 362.947 160.444 362.947 153.02C362.947 145.511 364.138 139.324 366.519 134.46C368.899 129.511 372.048 125.841 375.965 123.452C379.882 120.977 384.144 119.74 388.752 119.74C391.44 119.74 394.013 120.039 396.471 120.636C398.282 121.076 399.948 121.679 401.468 122.444C402.168 122.797 403.037 122.309 403.037 121.524V106.684C403.037 104.892 402.768 103.569 402.231 102.716C401.77 101.863 400.733 101.265 399.12 100.924L397.565 100.56C397.194 100.473 396.931 100.142 396.931 99.7612V99.7612C396.931 99.39 397.181 99.0651 397.539 98.9688L417.37 93.6418C417.699 93.5534 418.05 93.6385 418.302 93.8676L418.826 94.344C419.041 94.5396 419.161 94.8191 419.153 95.1097L418.704 112.572V175.164C418.704 176.871 418.973 178.279 419.511 179.388C420.048 180.412 421.047 181.137 422.506 181.564L423.029 181.758C423.338 181.872 423.543 182.166 423.543 182.496V182.496C423.543 182.908 423.224 183.251 422.812 183.28L404.701 184.575C404.208 184.61 403.763 184.279 403.655 183.797L403.144 181.526C402.985 180.821 402.151 180.509 401.544 180.902C399.782 182.04 397.822 182.986 395.664 183.74C393.053 184.679 390.135 185.148 386.909 185.148ZM393.591 180.412C396.664 180.412 399.493 179.444 402.078 177.507C402.322 177.324 402.461 177.034 402.461 176.729V126.908C402.461 126.586 402.307 126.283 402.042 126.102C399.333 124.25 396.554 123.324 393.706 123.324C390.019 123.324 386.871 125.713 384.259 130.492C381.648 135.185 380.343 142.609 380.343 152.764C380.343 162.919 381.571 170.087 384.029 174.268C386.487 178.364 389.674 180.412 393.591 180.412Z" fill="#2F2B27"/>
<path d="M262.876 183.228C262.468 183.228 262.137 182.897 262.137 182.489V182.489C262.137 182.167 262.345 181.882 262.652 181.784L263.749 181.436C265.209 181.009 266.207 180.284 266.745 179.26C267.359 178.236 267.705 176.871 267.781 175.164V135.1C267.781 133.223 267.513 131.857 266.975 131.004C266.437 130.065 265.401 129.425 263.865 129.084L262.774 128.761C262.396 128.649 262.137 128.302 262.137 127.908V127.908C262.137 127.537 262.366 127.206 262.713 127.075L281.197 120.109C281.582 119.964 282.017 120.069 282.293 120.376L282.771 120.907C282.912 121.064 283 121.261 283.022 121.471L283.673 127.62C283.764 128.481 284.843 128.837 285.458 128.227C287.599 126.105 289.963 124.258 292.549 122.684C295.852 120.721 299.269 119.74 302.802 119.74C306.489 119.74 309.445 120.593 311.673 122.3C313.552 123.668 315.049 125.705 316.163 128.41C316.451 129.11 317.375 129.316 317.916 128.788C320.576 126.193 323.41 124.116 326.418 122.556C329.951 120.679 333.369 119.74 336.671 119.74C342.124 119.74 346.117 121.191 348.652 124.092C351.263 126.993 352.569 131.559 352.569 137.788V175.292C352.569 178.62 353.951 180.711 356.716 181.564L357.461 181.79C357.771 181.884 357.983 182.169 357.983 182.493V182.493C357.983 182.899 357.654 183.228 357.248 183.228H332.116C331.705 183.228 331.372 182.895 331.372 182.484V182.484C331.372 182.164 331.577 181.88 331.88 181.778L332.524 181.564C333.983 181.052 334.981 180.284 335.519 179.26C336.133 178.236 336.441 176.871 336.441 175.164V135.996C336.441 132.412 335.865 129.98 334.713 128.7C333.561 127.335 331.717 126.652 329.183 126.652C327.186 126.652 325.228 127.164 323.308 128.188C321.596 129.06 319.785 130.373 317.875 132.128C317.601 132.379 317.498 132.763 317.586 133.124C317.878 134.328 318.058 135.627 318.124 137.02C318.277 138.641 318.354 140.348 318.354 142.14V175.292C318.431 178.62 319.813 180.711 322.501 181.564L323.046 181.766C323.342 181.875 323.538 182.158 323.538 182.473V182.473C323.538 182.89 323.2 183.228 322.783 183.228H297.551C297.143 183.228 296.812 182.897 296.812 182.489V182.489C296.812 182.167 297.02 181.882 297.327 181.784L298.425 181.436C299.884 180.924 300.882 180.199 301.42 179.26C302.034 178.236 302.341 176.871 302.341 175.164V136.124C302.341 132.711 301.765 130.279 300.613 128.828C299.538 127.377 297.657 126.652 294.969 126.652C293.202 126.652 291.436 127.164 289.669 128.188C287.996 129.077 286.254 130.388 284.442 132.119C284.248 132.305 284.14 132.564 284.14 132.833V175.292C284.14 178.62 285.484 180.711 288.172 181.564L288.716 181.766C289.012 181.875 289.209 182.158 289.209 182.473V182.473C289.209 182.89 288.871 183.228 288.454 183.228H262.876Z" fill="#2F2B27"/>
<path d="M506.243 184.228C505.832 184.228 505.463 183.977 505.312 183.594L481.275 122.49C481.017 121.834 481.501 121.124 482.206 121.124H496.624C497.045 121.124 497.421 121.388 497.565 121.783L514.82 169.431C515.056 170.083 514.573 170.772 513.88 170.772H510.587C509.892 170.772 509.409 170.082 509.647 169.43L527.014 121.782C527.158 121.387 527.533 121.124 527.954 121.124H542.374C543.079 121.124 543.562 121.834 543.304 122.49L519.267 183.594C519.117 183.977 518.747 184.228 518.336 184.228H506.243Z" fill="#2F2B27"/>
<path d="M454.417 185.62C447.689 185.62 441.811 184.035 436.785 180.864C432.089 177.782 428.785 173.691 426.874 168.591C426.696 168.117 426.919 167.592 427.375 167.373L437.026 162.745C437.53 162.503 438.133 162.723 438.386 163.223C439.967 166.344 442.062 168.822 444.673 170.656C447.611 172.667 450.859 173.672 454.417 173.672C457.201 173.672 459.405 173.053 461.029 171.816C462.653 170.579 463.465 168.955 463.465 166.944C463.465 165.707 463.117 164.701 462.421 163.928C461.802 163.077 460.913 162.381 459.753 161.84C458.67 161.221 457.471 160.719 456.157 160.332L445.833 157.432C440.497 155.885 436.437 153.527 433.653 150.356C430.946 147.185 429.593 143.435 429.593 139.104C429.593 135.237 430.559 131.873 432.493 129.012C434.503 126.073 437.249 123.792 440.729 122.168C444.286 120.544 448.346 119.732 452.909 119.732C458.863 119.732 464.122 121.163 468.685 124.024C472.992 126.725 476.128 130.461 478.092 135.23C478.29 135.712 478.066 136.258 477.595 136.48L467.807 141.08C467.279 141.328 466.655 141.072 466.411 140.543C465.303 138.144 463.625 136.195 461.377 134.696C458.825 132.995 455.963 132.144 452.793 132.144C450.241 132.144 448.23 132.724 446.761 133.884C445.291 135.044 444.557 136.552 444.557 138.408C444.557 139.568 444.866 140.573 445.485 141.424C446.103 142.275 446.954 142.971 448.037 143.512C449.197 144.053 450.511 144.556 451.981 145.02L462.073 148.036C467.254 149.583 471.237 151.903 474.021 154.996C476.882 158.089 478.313 161.879 478.313 166.364C478.313 170.153 477.307 173.517 475.297 176.456C473.286 179.317 470.502 181.56 466.945 183.184C463.387 184.808 459.211 185.62 454.417 185.62Z" fill="#2F2B27"/>
<path fill-rule="evenodd" clip-rule="evenodd" d="M560.946 154.228L559.926 154.711C555.735 156.696 553.062 160.919 553.062 165.556V173.659C553.062 174.613 554.27 175.026 554.854 174.271L567.506 157.897C569.175 155.736 569.175 152.72 567.506 150.559L554.854 134.185C554.27 133.43 553.062 133.843 553.062 134.797L553.062 142.9C553.062 147.537 555.735 151.76 559.926 153.745L560.946 154.228Z" fill="#E26C35"/>
<path fill-rule="evenodd" clip-rule="evenodd" d="M239.054 154.228L240.074 154.711C244.265 156.696 246.938 160.919 246.938 165.556V173.659C246.938 174.613 245.73 175.026 245.146 174.271L232.494 157.897C230.825 155.736 230.825 152.72 232.494 150.559L245.146 134.185C245.73 133.43 246.938 133.843 246.938 134.797L246.938 142.9C246.938 147.537 244.265 151.76 240.074 153.745L239.054 154.228Z" fill="#E26C35"/>
</svg>
