<svg width="282" height="120" viewBox="0 0 282 120" fill="none" xmlns="http://www.w3.org/2000/svg">
  <path filter="#url(grain)" d="M88.792 54.678V72.514C88.792 73.242 88.8613 73.762 89 74.074C89.156 74.3687 89.39 74.5853 89.702 74.724L90.43 75.01C91.054 75.3393 91.366 75.816 91.366 76.44C91.366 77.48 90.794 78 89.65 78H79.666C79.094 78 78.6433 77.8613 78.314 77.584C78.002 77.3067 77.846 76.934 77.846 76.466C77.846 76.0847 77.9413 75.7727 78.132 75.53C78.3227 75.27 78.6 75.0533 78.964 74.88L79.718 74.62C80.03 74.464 80.2553 74.2473 80.394 73.97C80.55 73.6753 80.628 73.19 80.628 72.514V60.32C80.628 59.7307 80.5413 59.3233 80.368 59.098C80.212 58.8553 79.978 58.682 79.666 58.578L78.626 58.448C78.2793 58.3093 78.0107 58.136 77.82 57.928C77.6467 57.7027 77.56 57.4167 77.56 57.07C77.56 56.6713 77.6727 56.342 77.898 56.082C78.1407 55.822 78.5393 55.588 79.094 55.38L83.904 53.586C84.5973 53.326 85.178 53.1353 85.646 53.014C86.114 52.8753 86.5733 52.806 87.024 52.806C87.5787 52.806 88.012 52.9793 88.324 53.326C88.636 53.6727 88.792 54.1233 88.792 54.678ZM88.038 61.126L86.53 59.462L87.726 58.37C89.91 56.3073 91.8253 54.8513 93.472 54.002C95.136 53.1353 96.696 52.702 98.152 52.702C100.336 52.702 102.104 53.4213 103.456 54.86C104.808 56.2987 105.484 58.214 105.484 60.606V72.488C105.484 73.2333 105.553 73.7533 105.692 74.048C105.848 74.3427 106.091 74.568 106.42 74.724L107.148 75.01C107.755 75.3567 108.058 75.8333 108.058 76.44C108.058 77.48 107.495 78 106.368 78H96.462C95.318 78 94.746 77.48 94.746 76.44C94.746 75.816 95.058 75.3393 95.682 75.01L96.436 74.724C96.748 74.5853 96.9733 74.36 97.112 74.048C97.268 73.736 97.346 73.216 97.346 72.488V62.322C97.346 60.9353 97.0253 59.8953 96.384 59.202C95.7427 58.4913 94.8673 58.136 93.758 58.136C93.0473 58.136 92.2933 58.3007 91.496 58.63C90.716 58.9593 89.9013 59.4967 89.052 60.242L88.038 61.126ZM104.808 61.1L103.3 59.41L104.366 58.422C106.533 56.342 108.448 54.8687 110.112 54.002C111.776 53.1353 113.336 52.702 114.792 52.702C116.993 52.702 118.77 53.4213 120.122 54.86C121.474 56.2987 122.15 58.214 122.15 60.606V72.488C122.15 73.1813 122.228 73.6753 122.384 73.97C122.54 74.2647 122.774 74.4813 123.086 74.62L123.788 74.88C124.152 75.0707 124.429 75.2873 124.62 75.53C124.811 75.7727 124.906 76.0847 124.906 76.466C124.906 76.934 124.75 77.3067 124.438 77.584C124.143 77.8613 123.701 78 123.112 78H113.102C111.975 78 111.412 77.48 111.412 76.44C111.412 75.816 111.715 75.3393 112.322 75.01L113.076 74.724C113.405 74.5853 113.639 74.36 113.778 74.048C113.917 73.736 113.986 73.216 113.986 72.488V62.322C113.986 60.9353 113.665 59.8953 113.024 59.202C112.383 58.4913 111.507 58.136 110.398 58.136C109.687 58.136 108.933 58.3093 108.136 58.656C107.356 58.9853 106.55 59.5313 105.718 60.294L104.808 61.1ZM145.152 73.164L144.84 73.008V46.722C144.84 46.1327 144.753 45.7253 144.58 45.5C144.424 45.2573 144.19 45.084 143.878 44.98L142.812 44.85C142.483 44.7113 142.223 44.538 142.032 44.33C141.841 44.1047 141.746 43.8187 141.746 43.472C141.746 43.0733 141.867 42.744 142.11 42.484C142.353 42.224 142.751 41.99 143.306 41.782L148.168 39.988C148.861 39.728 149.433 39.5373 149.884 39.416C150.352 39.2773 150.811 39.208 151.262 39.208C151.834 39.208 152.267 39.3813 152.562 39.728C152.874 40.0747 153.03 40.5253 153.03 41.08V72.514C153.03 73.19 153.108 73.6753 153.264 73.97C153.437 74.2647 153.671 74.4813 153.966 74.62L154.694 74.88C155.058 75.0533 155.335 75.27 155.526 75.53C155.717 75.7727 155.812 76.0847 155.812 76.466C155.812 76.934 155.656 77.3067 155.344 77.584C155.032 77.8613 154.59 78 154.018 78H148.792C147.769 78 146.903 77.6793 146.192 77.038C145.499 76.3793 145.152 75.5473 145.152 74.542V73.164ZM126.276 66.378C126.276 63.6047 126.831 61.1953 127.94 59.15C129.067 57.1047 130.583 55.5187 132.49 54.392C134.397 53.2653 136.537 52.702 138.912 52.702C140.992 52.702 142.829 53.1873 144.424 54.158C146.019 55.1287 147.336 56.524 148.376 58.344L146.27 60.736C145.507 59.3147 144.632 58.2833 143.644 57.642C142.656 56.9833 141.599 56.654 140.472 56.654C139.38 56.654 138.401 56.9833 137.534 57.642C136.685 58.3007 136.017 59.2887 135.532 60.606C135.047 61.906 134.804 63.5353 134.804 65.494C134.804 67.4007 135.047 68.9867 135.532 70.252C136.035 71.5173 136.719 72.4707 137.586 73.112C138.453 73.736 139.432 74.048 140.524 74.048C141.72 74.048 142.812 73.7013 143.8 73.008C144.788 72.2973 145.672 71.2313 146.452 69.81L147.804 71.552C146.435 73.7707 144.84 75.5127 143.02 76.778C141.217 78.0433 139.207 78.676 136.988 78.676C134.925 78.676 133.088 78.156 131.476 77.116C129.864 76.0587 128.59 74.6113 127.654 72.774C126.735 70.9193 126.276 68.7873 126.276 66.378ZM166.632 78.432C165.4 78.336 164.208 78.08 163.056 77.664C161.92 77.232 160.904 76.656 160.008 75.936C159.128 75.2 158.44 74.32 157.944 73.296L163.392 70.968C163.568 71.224 163.84 71.512 164.208 71.832C164.576 72.136 165.024 72.408 165.552 72.648C166.08 72.872 166.68 72.984 167.352 72.984C167.864 72.984 168.36 72.92 168.84 72.792C169.32 72.648 169.712 72.432 170.016 72.144C170.32 71.84 170.472 71.448 170.472 70.968C170.472 70.44 170.28 70.04 169.896 69.768C169.528 69.48 169.072 69.264 168.528 69.12C167.984 68.976 167.464 68.856 166.968 68.76C165.496 68.488 164.104 68.024 162.792 67.368C161.496 66.712 160.44 65.856 159.624 64.8C158.824 63.744 158.424 62.488 158.424 61.032C158.424 59.416 158.84 58.024 159.672 56.856C160.52 55.672 161.624 54.768 162.984 54.144C164.344 53.504 165.808 53.184 167.376 53.184C169.264 53.184 171.008 53.576 172.608 54.36C174.208 55.144 175.488 56.256 176.448 57.696L171.36 60.72C171.136 60.4 170.848 60.096 170.496 59.808C170.16 59.504 169.768 59.256 169.32 59.064C168.888 58.856 168.424 58.728 167.928 58.68C167.288 58.648 166.704 58.696 166.176 58.824C165.648 58.952 165.232 59.184 164.928 59.52C164.624 59.84 164.472 60.288 164.472 60.864C164.472 61.408 164.696 61.808 165.144 62.064C165.608 62.32 166.152 62.512 166.776 62.64C167.416 62.768 167.984 62.912 168.48 63.072C169.872 63.52 171.176 64.096 172.392 64.8C173.624 65.488 174.616 66.336 175.368 67.344C176.12 68.336 176.48 69.52 176.448 70.896C176.448 72.464 175.976 73.84 175.032 75.024C174.088 76.208 172.864 77.112 171.36 77.736C169.872 78.344 168.296 78.576 166.632 78.432ZM195.1 78H186.748L178.012 53.976H184.924L190.924 70.56L196.948 53.976H203.836L195.1 78Z" fill="url(#gradient1)"/>
  <defs>
    <filter id="grain" x="0" y="0" width="100%" height="100%" filterUnits="objectBoundingBox" primitiveUnits="userSpaceOnUse">
      <feTurbulence type="fractalNoise" baseFrequency="1" numOctaves="2" result="noise"/>
      <feColorMatrix in="noise" type="saturate" values="0.5" result="monoNoise"/>
      <feComponentTransfer in="monoNoise" result="grainOpacity">
        <feFuncR type="gamma" amplitude="0.5" exponent="1" offset="1"/>
        <feFuncG type="gamma" amplitude="0.5" exponent="1" offset="1"/>
        <feFuncB type="gamma" amplitude="0.5" exponent="1" offset="1"/>
        <feFuncA type="identity"/>
      </feComponentTransfer>
      <feComposite in="SourceGraphic" in2="grainOpacity" operator="in" result="maskedGrain"/>
      <feBlend in="SourceGraphic" in2="maskedGrain" mode="overlay"/>
    </filter>
    <radialGradient id="gradient1" cx="0" cy="0" r="1" gradientUnits="userSpaceOnUse" gradientTransform="translate(200 57.5) rotate(178.697) scale(109.92 57.9359)">
      <stop stop-color="#D25E0B"/>
      <stop offset="1" stop-color="#5A4545"/>
    </radialGradient>
  </defs>
</svg>
