<svg width="800" height="280" viewBox="0 0 800 280" fill="none" xmlns="http://www.w3.org/2000/svg">
<path d="M387.157 185.588C382.626 185.588 378.556 184.479 374.946 182.26C371.337 179.956 368.457 176.457 366.306 171.764C364.233 166.985 363.196 160.884 363.196 153.46C363.196 145.951 364.386 139.764 366.767 134.9C369.148 129.951 372.297 126.281 376.213 123.892C380.13 121.417 384.393 120.18 389.001 120.18C391.689 120.18 394.261 120.479 396.719 121.076C398.531 121.516 400.196 122.119 401.716 122.884C402.417 123.237 403.285 122.749 403.285 121.964V107.124C403.285 105.332 403.017 104.009 402.479 103.156C402.018 102.303 400.981 101.705 399.369 101.364L397.813 101C397.442 100.913 397.18 100.582 397.18 100.201V100.201C397.18 99.83 397.429 99.5051 397.787 99.4088L417.618 94.0818C417.947 93.9934 418.299 94.0785 418.551 94.3076L419.075 94.784C419.29 94.9796 419.409 95.2591 419.402 95.5497L418.953 113.012V175.604C418.953 177.311 419.221 178.719 419.759 179.828C420.297 180.852 421.295 181.577 422.754 182.004L423.278 182.198C423.586 182.312 423.791 182.606 423.791 182.936V182.936C423.791 183.348 423.472 183.691 423.06 183.72L404.95 185.015C404.457 185.05 404.012 184.719 403.903 184.237L403.392 181.966C403.233 181.261 402.4 180.949 401.793 181.342C400.031 182.48 398.071 183.426 395.913 184.18C393.301 185.119 390.383 185.588 387.157 185.588ZM393.839 180.852C396.912 180.852 399.741 179.884 402.327 177.947C402.571 177.764 402.709 177.474 402.709 177.169V127.348C402.709 127.026 402.556 126.723 402.29 126.542C399.581 124.69 396.802 123.764 393.954 123.764C390.268 123.764 387.119 126.153 384.508 130.932C381.897 135.625 380.591 143.049 380.591 153.204C380.591 163.359 381.82 170.527 384.277 174.708C386.735 178.804 389.922 180.852 393.839 180.852Z" fill="#1D1C1A"/>
<path d="M263.124 183.668C262.716 183.668 262.385 183.337 262.385 182.929V182.929C262.385 182.607 262.594 182.322 262.901 182.224L263.998 181.876C265.457 181.449 266.455 180.724 266.993 179.7C267.607 178.676 267.953 177.311 268.03 175.604V135.54C268.03 133.663 267.761 132.297 267.223 131.444C266.686 130.505 265.649 129.865 264.113 129.524L263.022 129.201C262.644 129.089 262.385 128.742 262.385 128.348V128.348C262.385 127.977 262.614 127.646 262.961 127.515L281.445 120.549C281.831 120.404 282.266 120.509 282.541 120.816L283.019 121.347C283.16 121.504 283.248 121.701 283.27 121.911L283.921 128.06C284.013 128.921 285.091 129.277 285.706 128.667C287.848 126.545 290.212 124.698 292.798 123.124C296.1 121.161 299.518 120.18 303.051 120.18C306.737 120.18 309.694 121.033 311.921 122.74C313.8 124.108 315.297 126.145 316.411 128.85C316.699 129.55 317.623 129.756 318.165 129.228C320.824 126.633 323.658 124.556 326.667 122.996C330.199 121.119 333.617 120.18 336.919 120.18C342.372 120.18 346.366 121.631 348.9 124.532C351.511 127.433 352.817 131.999 352.817 138.228V175.732C352.817 179.06 354.199 181.151 356.964 182.004L357.71 182.23C358.02 182.324 358.231 182.609 358.231 182.933V182.933C358.231 183.339 357.902 183.668 357.497 183.668H332.364C331.953 183.668 331.62 183.335 331.62 182.924V182.924C331.62 182.604 331.825 182.32 332.129 182.218L332.772 182.004C334.231 181.492 335.23 180.724 335.767 179.7C336.382 178.676 336.689 177.311 336.689 175.604V136.436C336.689 132.852 336.113 130.42 334.961 129.14C333.809 127.775 331.966 127.092 329.431 127.092C327.435 127.092 325.476 127.604 323.556 128.628C321.845 129.5 320.033 130.813 318.123 132.568C317.849 132.819 317.746 133.203 317.834 133.564C318.127 134.768 318.306 136.067 318.372 137.46C318.526 139.081 318.603 140.788 318.603 142.58V175.732C318.679 179.06 320.062 181.151 322.75 182.004L323.294 182.206C323.59 182.315 323.787 182.598 323.787 182.913V182.913C323.787 183.33 323.449 183.668 323.032 183.668H297.799C297.391 183.668 297.06 183.337 297.06 182.929V182.929C297.06 182.607 297.269 182.322 297.576 182.224L298.673 181.876C300.132 181.364 301.131 180.639 301.668 179.7C302.283 178.676 302.59 177.311 302.59 175.604V136.564C302.59 133.151 302.014 130.719 300.862 129.268C299.787 127.817 297.905 127.092 295.217 127.092C293.451 127.092 291.684 127.604 289.918 128.628C288.244 129.517 286.502 130.828 284.691 132.559C284.496 132.745 284.388 133.004 284.388 133.273V175.732C284.388 179.06 285.732 181.151 288.42 182.004L288.964 182.206C289.26 182.315 289.457 182.598 289.457 182.913V182.913C289.457 183.33 289.119 183.668 288.702 183.668H263.124Z" fill="#1D1C1A"/>
<path d="M506.491 184.668C506.08 184.668 505.711 184.417 505.561 184.034L481.523 122.93C481.265 122.274 481.749 121.564 482.454 121.564H496.873C497.294 121.564 497.67 121.828 497.813 122.223L515.069 169.871C515.305 170.523 514.822 171.212 514.128 171.212H510.835C510.141 171.212 509.658 170.522 509.895 169.87L527.262 122.222C527.406 121.827 527.782 121.564 528.202 121.564H542.622C543.327 121.564 543.811 122.274 543.553 122.93L519.515 184.034C519.365 184.417 518.996 184.668 518.585 184.668H506.491Z" fill="#1D1C1A"/>
<path d="M454.665 186.06C447.937 186.06 442.06 184.475 437.033 181.304C432.337 178.222 429.033 174.131 427.122 169.031C426.945 168.557 427.168 168.032 427.623 167.813L437.274 163.185C437.779 162.943 438.382 163.163 438.635 163.663C440.215 166.784 442.311 169.262 444.921 171.096C447.86 173.107 451.108 174.112 454.665 174.112C457.449 174.112 459.653 173.493 461.277 172.256C462.901 171.019 463.713 169.395 463.713 167.384C463.713 166.147 463.365 165.141 462.669 164.368C462.05 163.517 461.161 162.821 460.001 162.28C458.918 161.661 457.72 161.159 456.405 160.772L446.081 157.872C440.745 156.325 436.685 153.967 433.901 150.796C431.194 147.625 429.841 143.875 429.841 139.544C429.841 135.677 430.808 132.313 432.741 129.452C434.752 126.513 437.497 124.232 440.977 122.608C444.534 120.984 448.594 120.172 453.157 120.172C459.112 120.172 464.37 121.603 468.933 124.464C473.241 127.165 476.377 130.901 478.341 135.67C478.539 136.152 478.314 136.698 477.843 136.92L468.055 141.52C467.528 141.768 466.904 141.512 466.659 140.983C465.551 138.584 463.873 136.635 461.625 135.136C459.073 133.435 456.212 132.584 453.041 132.584C450.489 132.584 448.478 133.164 447.009 134.324C445.54 135.484 444.805 136.992 444.805 138.848C444.805 140.008 445.114 141.013 445.733 141.864C446.352 142.715 447.202 143.411 448.285 143.952C449.445 144.493 450.76 144.996 452.229 145.46L462.321 148.476C467.502 150.023 471.485 152.343 474.269 155.436C477.13 158.529 478.561 162.319 478.561 166.804C478.561 170.593 477.556 173.957 475.545 176.896C473.534 179.757 470.75 182 467.193 183.624C463.636 185.248 459.46 186.06 454.665 186.06Z" fill="#1D1C1A"/>
<path fill-rule="evenodd" clip-rule="evenodd" d="M561.195 154.668L550.791 167.796C550.508 168.153 550.502 168.655 550.776 169.019L556.058 176.026C556.445 176.539 557.209 176.559 557.622 176.067L569.11 162.384C572.857 157.922 572.857 151.414 569.11 146.952L557.622 133.269C557.209 132.777 556.445 132.797 556.058 133.31L550.776 140.317C550.502 140.681 550.508 141.183 550.791 141.54L561.195 154.668Z" fill="#E26C35"/>
<path fill-rule="evenodd" clip-rule="evenodd" d="M237.805 154.668L248.209 167.796C248.492 168.153 248.498 168.655 248.224 169.019L242.942 176.026C242.555 176.539 241.791 176.559 241.378 176.067L229.89 162.384C226.144 157.922 226.144 151.414 229.89 146.952L241.378 133.269C241.791 132.777 242.555 132.797 242.942 133.31L248.224 140.317C248.498 140.681 248.492 141.183 248.209 141.54L237.805 154.668Z" fill="#E26C35"/>
</svg>
