<svg width="800" height="280" viewBox="0 0 800 280" fill="none" xmlns="http://www.w3.org/2000/svg">
<path d="M388.409 185.148C383.878 185.148 379.807 184.039 376.198 181.82C372.588 179.516 369.708 176.017 367.558 171.324C365.484 166.545 364.447 160.444 364.447 153.02C364.447 145.511 365.638 139.324 368.019 134.46C370.399 129.511 373.548 125.841 377.465 123.452C381.382 120.977 385.644 119.74 390.252 119.74C392.94 119.74 395.513 120.039 397.971 120.636C399.782 121.076 401.448 121.679 402.968 122.444C403.668 122.797 404.537 122.309 404.537 121.524V106.684C404.537 104.892 404.268 103.569 403.731 102.716C403.27 101.863 402.233 101.265 400.62 100.924L399.065 100.56C398.694 100.473 398.431 100.142 398.431 99.7612C398.431 99.39 398.681 99.0651 399.039 98.9688L418.87 93.6418C419.199 93.5534 419.55 93.6385 419.802 93.8676L420.326 94.344C420.541 94.5396 420.661 94.8191 420.653 95.1097L420.204 112.572V175.164C420.204 176.871 420.473 178.279 421.011 179.388C421.548 180.412 422.547 181.137 424.006 181.564L424.529 181.758C424.838 181.872 425.043 182.166 425.043 182.496C425.043 182.908 424.724 183.251 424.312 183.28L406.201 184.575C405.708 184.61 405.263 184.279 405.155 183.797L404.644 181.526C404.485 180.821 403.651 180.509 403.044 180.902C401.282 182.04 399.322 182.986 397.164 183.74C394.553 184.679 391.635 185.148 388.409 185.148ZM395.091 180.412C398.164 180.412 400.993 179.444 403.578 177.507C403.822 177.324 403.961 177.034 403.961 176.729V126.908C403.961 126.586 403.807 126.283 403.542 126.102C400.833 124.25 398.054 123.324 395.206 123.324C391.519 123.324 388.371 125.713 385.759 130.492C383.148 135.185 381.843 142.609 381.843 152.764C381.843 162.919 383.071 170.087 385.529 174.268C387.987 178.364 391.174 180.412 395.091 180.412Z" fill="#E6E2DD"/>
<path d="M264.376 183.228C263.968 183.228 263.637 182.897 263.637 182.489C263.637 182.167 263.845 181.882 264.152 181.784L265.249 181.436C266.709 181.009 267.707 180.284 268.245 179.26C268.859 178.236 269.205 176.871 269.281 175.164V135.1C269.281 133.223 269.013 131.857 268.475 131.004C267.937 130.065 266.901 129.425 265.365 129.084L264.274 128.761C263.896 128.649 263.637 128.302 263.637 127.908C263.637 127.537 263.866 127.206 264.213 127.075L282.697 120.109C283.082 119.964 283.517 120.07 283.793 120.376L284.271 120.907C284.412 121.064 284.5 121.261 284.522 121.471L285.173 127.62C285.264 128.481 286.343 128.837 286.958 128.227C289.099 126.105 291.463 124.258 294.049 122.684C297.352 120.721 300.769 119.74 304.302 119.74C307.989 119.74 310.945 120.593 313.173 122.3C315.052 123.668 316.549 125.705 317.663 128.41C317.951 129.11 318.875 129.316 319.416 128.788C322.076 126.193 324.91 124.116 327.918 122.556C331.451 120.679 334.869 119.74 338.171 119.74C343.624 119.74 347.617 121.191 350.152 124.092C352.763 126.993 354.069 131.559 354.069 137.788V175.292C354.069 178.62 355.451 180.711 358.216 181.564L358.961 181.79C359.271 181.884 359.483 182.169 359.483 182.493C359.483 182.899 359.154 183.228 358.748 183.228H333.616C333.205 183.228 332.872 182.895 332.872 182.484C332.872 182.164 333.077 181.88 333.38 181.778L334.024 181.564C335.483 181.052 336.481 180.284 337.019 179.26C337.633 178.236 337.941 176.871 337.941 175.164V135.996C337.941 132.412 337.365 129.98 336.213 128.7C335.061 127.335 333.217 126.652 330.683 126.652C328.686 126.652 326.728 127.164 324.808 128.188C323.096 129.06 321.285 130.373 319.375 132.128C319.101 132.379 318.998 132.763 319.086 133.124C319.378 134.328 319.558 135.627 319.624 137.02C319.777 138.641 319.854 140.348 319.854 142.14V175.292C319.931 178.62 321.313 180.711 324.001 181.564L324.546 181.766C324.842 181.875 325.038 182.158 325.038 182.473C325.038 182.89 324.7 183.228 324.283 183.228H299.051C298.643 183.228 298.312 182.897 298.312 182.489C298.312 182.167 298.52 181.882 298.827 181.784L299.925 181.436C301.384 180.924 302.382 180.199 302.92 179.26C303.534 178.236 303.841 176.871 303.841 175.164V136.124C303.841 132.711 303.265 130.279 302.113 128.828C301.038 127.377 299.157 126.652 296.469 126.652C294.702 126.652 292.936 127.164 291.169 128.188C289.496 129.077 287.754 130.388 285.942 132.119C285.748 132.305 285.64 132.564 285.64 132.833V175.292C285.64 178.62 286.984 180.711 289.672 181.564L290.216 181.766C290.512 181.875 290.709 182.158 290.709 182.473C290.709 182.89 290.371 183.228 289.954 183.228H264.376Z" fill="#E6E2DD"/>
<path d="M507.743 184.228C507.332 184.228 506.963 183.977 506.812 183.594L482.775 122.49C482.517 121.834 483.001 121.124 483.706 121.124H498.124C498.545 121.124 498.921 121.388 499.065 121.783L516.32 169.431C516.556 170.083 516.073 170.772 515.38 170.772H512.087C511.392 170.772 510.909 170.082 511.147 169.43L528.514 121.782C528.658 121.387 529.033 121.124 529.454 121.124H543.874C544.579 121.124 545.062 121.834 544.804 122.49L520.767 183.594C520.617 183.977 520.247 184.228 519.836 184.228H507.743Z" fill="#E6E2DD"/>
<path d="M455.917 185.62C449.189 185.62 443.311 184.035 438.285 180.864C433.589 177.782 430.285 173.691 428.374 168.591C428.196 168.117 428.419 167.592 428.875 167.373L438.526 162.745C439.03 162.503 439.633 162.723 439.886 163.223C441.467 166.344 443.562 168.822 446.173 170.656C449.111 172.667 452.359 173.672 455.917 173.672C458.701 173.672 460.905 173.053 462.529 171.816C464.153 170.579 464.965 168.955 464.965 166.944C464.965 165.707 464.617 164.701 463.921 163.928C463.302 163.077 462.413 162.381 461.253 161.84C460.17 161.221 458.971 160.719 457.657 160.332L447.333 157.432C441.997 155.885 437.937 153.527 435.153 150.356C432.446 147.185 431.093 143.435 431.093 139.104C431.093 135.237 432.059 131.873 433.993 129.012C436.003 126.073 438.749 123.792 442.229 122.168C445.786 120.544 449.846 119.732 454.409 119.732C460.363 119.732 465.622 121.163 470.185 124.024C474.492 126.725 477.628 130.461 479.592 135.23C479.79 135.712 479.566 136.258 479.095 136.48L469.307 141.08C468.779 141.328 468.155 141.072 467.911 140.543C466.803 138.144 465.125 136.195 462.877 134.696C460.325 132.995 457.463 132.144 454.293 132.144C451.741 132.144 449.73 132.724 448.261 133.884C446.791 135.044 446.057 136.552 446.057 138.408C446.057 139.568 446.366 140.573 446.985 141.424C447.603 142.275 448.454 142.971 449.537 143.512C450.697 144.053 452.011 144.556 453.481 145.02L463.573 148.036C468.754 149.583 472.737 151.903 475.521 154.996C478.382 158.089 479.813 161.879 479.813 166.364C479.813 170.153 478.807 173.517 476.797 176.456C474.786 179.317 472.002 181.56 468.445 183.184C464.887 184.808 460.711 185.62 455.917 185.62Z" fill="#E6E2DD"/>
<path fill-rule="evenodd" clip-rule="evenodd" d="M555.446 154L547.841 163.542C547.372 164.13 547.273 164.931 547.584 165.616L551.398 174.008C551.708 174.689 552.629 174.801 553.093 174.214L567.605 155.861C568.468 154.77 568.468 153.23 567.605 152.139L553.093 133.786C552.629 133.199 551.708 133.311 551.398 133.992L547.584 142.384C547.273 143.069 547.372 143.87 547.841 144.458L555.446 154Z" fill="#E26C35"/>
<path fill-rule="evenodd" clip-rule="evenodd" d="M239.554 154.228L242.601 155.267C249.081 157.476 253.438 163.564 253.438 170.411L253.438 173.659C253.438 174.613 252.23 175.026 251.646 174.271L237.577 156.062C236.742 154.982 236.742 153.474 237.577 152.394L251.646 134.185C252.23 133.43 253.438 133.843 253.438 134.797L253.438 138.045C253.438 144.892 249.081 150.98 242.601 153.189L239.554 154.228Z" fill="#E26C35"/>
</svg>
